<svg width="342" height="46" viewBox="0 0 342 46" fill="none" xmlns="http://www.w3.org/2000/svg">
<path d="M69 45.6059L48 24.5174L53.3887 19.1654L65.1962 30.9877L65.1962 0.393554L72.7245 0.393554L72.7245 31.0676L84.6113 19.1655L90 24.5973L69 45.6059Z" fill="white"/>
<path d="M171 45.6059L150 24.5174L155.389 19.1654L167.196 30.9877L167.196 0.393554L174.725 0.393554L174.725 31.0676L186.611 19.1655L192 24.5973L171 45.6059Z" fill="white"/>
<path d="M273 45.6059L252 24.5174L257.389 19.1654L269.196 30.9877L269.196 0.393554L276.725 0.393554L276.725 31.0676L288.611 19.1655L294 24.5973L273 45.6059Z" fill="white"/>
</svg>