<svg width="193" height="273" viewBox="0 0 193 273" fill="none" xmlns="http://www.w3.org/2000/svg">
<path d="M25.979 245.571L1.59802 245.571C1.19388 245.571 0.806292 245.732 0.520525 246.018C0.234759 246.303 0.0742209 246.691 0.0742208 247.095L0.0742189 271.476C0.0742188 271.88 0.234757 272.268 0.520523 272.554C0.80629 272.839 1.19388 273 1.59802 273L25.979 273C26.3831 273 26.7707 272.839 27.0565 272.554C27.3422 272.268 27.5028 271.88 27.5028 271.476L27.5028 247.095C27.5028 246.691 27.6633 246.303 27.9491 246.018C28.2349 245.732 28.6225 245.571 29.0266 245.571L53.4075 245.571C53.8117 245.571 54.1993 245.732 54.485 246.018C54.7708 246.303 54.9314 246.691 54.9314 247.095L54.9314 271.476C54.9314 271.88 55.0919 272.268 55.3777 272.554C55.6634 272.839 56.051 273 56.4552 273L80.8361 273C81.2403 273 81.6278 272.839 81.9136 272.554C82.1994 272.268 82.3599 271.88 82.3599 271.476L82.3599 247.095C82.3599 246.691 82.5205 246.304 82.8062 246.018C83.092 245.732 83.4796 245.571 83.8837 245.571L108.265 245.571C108.669 245.571 109.056 245.732 109.342 246.018C109.628 246.304 109.789 246.691 109.789 247.095L109.789 271.476C109.789 271.88 109.949 272.268 110.235 272.554C110.521 272.839 110.908 273 111.312 273L135.693 273C136.097 273 136.485 272.839 136.771 272.554C137.057 272.268 137.217 271.88 137.217 271.476L137.217 247.095C137.217 246.691 137.378 246.304 137.663 246.018C137.949 245.732 138.337 245.571 138.741 245.571L163.122 245.571C163.526 245.571 163.914 245.732 164.199 246.018C164.485 246.304 164.646 246.691 164.646 247.095L164.646 271.476C164.646 271.88 164.806 272.268 165.092 272.554C165.378 272.839 165.765 273 166.169 273L190.55 273C190.955 273 191.342 272.839 191.628 272.554C191.914 272.268 192.074 271.88 192.074 271.476L192.074 247.095C192.074 246.691 191.914 246.304 191.628 246.018C191.342 245.732 190.955 245.571 190.55 245.571L166.169 245.571C165.765 245.571 165.378 245.411 165.092 245.125C164.806 244.839 164.646 244.452 164.646 244.048L164.646 219.667C164.646 219.263 164.806 218.875 165.092 218.589C165.378 218.303 165.765 218.143 166.169 218.143L190.55 218.143C190.955 218.143 191.342 217.982 191.628 217.697C191.914 217.411 192.074 217.023 192.074 216.619L192.074 192.238C192.074 191.834 191.914 191.446 191.628 191.161C191.342 190.875 190.955 190.714 190.55 190.714L166.169 190.714C165.765 190.714 165.378 190.554 165.092 190.268C164.806 189.982 164.646 189.595 164.646 189.19L164.646 164.81C164.646 164.405 164.806 164.018 165.092 163.732C165.378 163.446 165.765 163.286 166.169 163.286L190.55 163.286C190.955 163.286 191.342 163.125 191.628 162.839C191.914 162.554 192.074 162.166 192.074 161.762L192.074 137.381C192.074 136.977 191.914 136.589 191.628 136.303C191.342 136.018 190.955 135.857 190.55 135.857L166.169 135.857C165.765 135.857 165.378 135.697 165.092 135.411C164.806 135.125 164.646 134.737 164.646 134.333L164.646 109.952C164.646 109.548 164.806 109.161 165.092 108.875C165.378 108.589 165.765 108.429 166.169 108.429L190.55 108.429C190.955 108.429 191.342 108.268 191.628 107.982C191.914 107.696 192.074 107.309 192.074 106.905L192.074 82.5238C192.074 82.1197 191.914 81.7321 191.628 81.4463C191.342 81.1605 190.955 81 190.55 81L166.169 81C165.765 81 165.378 81.1605 165.092 81.4463C164.806 81.7321 164.646 82.1197 164.646 82.5238L164.646 106.905C164.646 107.309 164.485 107.696 164.199 107.982C163.914 108.268 163.526 108.429 163.122 108.429L138.741 108.429C138.337 108.429 137.949 108.268 137.663 107.982C137.378 107.696 137.217 107.309 137.217 106.905L137.217 82.5238C137.217 82.1197 137.057 81.7321 136.771 81.4463C136.485 81.1605 136.097 81 135.693 81L111.312 81C110.908 81 110.521 81.1605 110.235 81.4463C109.949 81.7321 109.789 82.1197 109.789 82.5238L109.789 106.905C109.789 107.309 109.628 107.696 109.342 107.982C109.056 108.268 108.669 108.429 108.265 108.429L83.8838 108.429C83.4796 108.429 83.092 108.268 82.8063 107.982C82.5205 107.696 82.3599 107.309 82.3599 106.905L82.3599 82.5238C82.3599 82.1196 82.1994 81.7321 81.9136 81.4463C81.6279 81.1605 81.2403 81 80.8361 81L56.4552 81C56.051 81 55.6635 81.1605 55.3777 81.4463C55.0919 81.7321 54.9314 82.1196 54.9314 82.5238L54.9314 106.905C54.9314 107.309 54.7708 107.696 54.4851 107.982C54.1993 108.268 53.8117 108.429 53.4076 108.429L29.0266 108.429C28.6225 108.429 28.2349 108.268 27.9491 107.982C27.6633 107.696 27.5028 107.309 27.5028 106.905L27.5028 82.5238C27.5028 82.1196 27.3423 81.7321 27.0565 81.4463C26.7707 81.1605 26.3831 81 25.979 81L1.59804 81C1.19389 81 0.806305 81.1605 0.520539 81.4463C0.234772 81.7321 0.0742342 82.1196 0.0742341 82.5238L0.0742322 106.905C0.0742321 107.309 0.23477 107.696 0.520536 107.982C0.806303 108.268 1.19389 108.429 1.59804 108.429L25.979 108.429C26.3831 108.429 26.7707 108.589 27.0565 108.875C27.3423 109.161 27.5028 109.548 27.5028 109.952L27.5028 134.333C27.5028 134.737 27.3423 135.125 27.0565 135.411C26.7707 135.697 26.3831 135.857 25.979 135.857L1.59803 135.857C1.19389 135.857 0.806301 136.018 0.520534 136.303C0.234767 136.589 0.0742297 136.977 0.0742297 137.381L0.0742277 161.762C0.0742277 162.166 0.234765 162.554 0.520532 162.839C0.806299 163.125 1.19389 163.286 1.59803 163.286L25.979 163.286C26.3831 163.286 26.7707 163.446 27.0565 163.732C27.3422 164.018 27.5028 164.405 27.5028 164.81L27.5028 189.19C27.5028 189.595 27.3422 189.982 27.0565 190.268C26.7707 190.554 26.3831 190.714 25.979 190.714L1.59803 190.714C1.19388 190.714 0.806296 190.875 0.52053 191.161C0.234763 191.446 0.0742253 191.834 0.0742253 192.238L0.0742233 216.619C0.0742233 217.023 0.234761 217.411 0.520528 217.697C0.806294 217.982 1.19388 218.143 1.59803 218.143L25.979 218.143C26.3831 218.143 26.7707 218.303 27.0565 218.589C27.3422 218.875 27.5028 219.263 27.5028 219.667L27.5028 244.048C27.5028 244.452 27.3422 244.839 27.0565 245.125C26.7707 245.411 26.3831 245.571 25.979 245.571ZM80.8361 245.571L56.4552 245.571C56.051 245.571 55.6634 245.411 55.3777 245.125C55.0919 244.839 54.9314 244.452 54.9314 244.048L54.9314 219.667C54.9314 219.263 55.0919 218.875 55.3777 218.589C55.6634 218.303 56.051 218.143 56.4552 218.143L80.8361 218.143C81.2403 218.143 81.6279 218.303 81.9136 218.589C82.1994 218.875 82.3599 219.263 82.3599 219.667L82.3599 244.048C82.3599 244.452 82.1994 244.839 81.9136 245.125C81.6278 245.411 81.2403 245.571 80.8361 245.571ZM54.9314 164.81C54.9314 164.405 55.0919 164.018 55.3777 163.732C55.6634 163.446 56.051 163.286 56.4552 163.286L80.8361 163.286C81.2403 163.286 81.6279 163.446 81.9136 163.732C82.1994 164.018 82.3599 164.405 82.3599 164.81L82.3599 189.19C82.3599 189.595 82.1994 189.982 81.9136 190.268C81.6279 190.554 81.2403 190.714 80.8361 190.714L56.4552 190.714C56.051 190.714 55.6634 190.554 55.3777 190.268C55.0919 189.982 54.9314 189.595 54.9314 189.19L54.9314 164.81ZM83.8837 218.143C83.4796 218.143 83.092 217.982 82.8062 217.697C82.5205 217.411 82.3599 217.023 82.3599 216.619L82.3599 192.238C82.3599 191.834 82.5205 191.446 82.8063 191.161C83.092 190.875 83.4796 190.714 83.8837 190.714L108.265 190.714C108.669 190.714 109.056 190.875 109.342 191.161C109.628 191.446 109.789 191.834 109.789 192.238L109.789 216.619C109.789 217.023 109.628 217.411 109.342 217.697C109.056 217.982 108.669 218.143 108.265 218.143L83.8837 218.143ZM111.312 163.286L135.693 163.286C136.097 163.286 136.485 163.446 136.771 163.732C137.057 164.018 137.217 164.405 137.217 164.81L137.217 189.19C137.217 189.595 137.057 189.982 136.771 190.268C136.485 190.554 136.097 190.714 135.693 190.714L111.312 190.714C110.908 190.714 110.521 190.554 110.235 190.268C109.949 189.982 109.789 189.595 109.789 189.19L109.789 164.81C109.789 164.405 109.949 164.018 110.235 163.732C110.521 163.446 110.908 163.286 111.312 163.286ZM135.693 245.571L111.312 245.571C110.908 245.571 110.521 245.411 110.235 245.125C109.949 244.839 109.789 244.452 109.789 244.048L109.789 219.667C109.789 219.263 109.949 218.875 110.235 218.589C110.521 218.303 110.908 218.143 111.312 218.143L135.693 218.143C136.097 218.143 136.485 218.303 136.771 218.589C137.057 218.875 137.217 219.263 137.217 219.667L137.217 244.048C137.217 244.452 137.057 244.839 136.771 245.125C136.485 245.411 136.097 245.571 135.693 245.571ZM163.122 218.143L138.741 218.143C138.337 218.143 137.949 217.982 137.663 217.697C137.378 217.411 137.217 217.023 137.217 216.619L137.217 192.238C137.217 191.834 137.378 191.446 137.663 191.161C137.949 190.875 138.337 190.714 138.741 190.714L163.122 190.714C163.526 190.714 163.914 190.875 164.199 191.161C164.485 191.446 164.646 191.834 164.646 192.238L164.646 216.619C164.646 217.023 164.485 217.411 164.199 217.697C163.914 217.982 163.526 218.143 163.122 218.143ZM163.122 135.857C163.526 135.857 163.914 136.018 164.199 136.303C164.485 136.589 164.646 136.977 164.646 137.381L164.646 161.762C164.646 162.166 164.485 162.554 164.199 162.839C163.914 163.125 163.526 163.286 163.122 163.286L138.741 163.286C138.337 163.286 137.949 163.125 137.663 162.839C137.378 162.554 137.217 162.166 137.217 161.762L137.217 137.381C137.217 136.977 137.378 136.589 137.663 136.303C137.949 136.018 138.337 135.857 138.741 135.857L163.122 135.857ZM111.312 108.429L135.693 108.429C136.097 108.429 136.485 108.589 136.771 108.875C137.057 109.161 137.217 109.548 137.217 109.952L137.217 134.333C137.217 134.737 137.057 135.125 136.771 135.411C136.485 135.697 136.097 135.857 135.693 135.857L111.312 135.857C110.908 135.857 110.521 135.697 110.235 135.411C109.949 135.125 109.789 134.737 109.789 134.333L109.789 109.952C109.789 109.548 109.949 109.161 110.235 108.875C110.521 108.589 110.908 108.429 111.312 108.429ZM108.265 135.857C108.669 135.857 109.056 136.018 109.342 136.303C109.628 136.589 109.789 136.977 109.789 137.381L109.789 161.762C109.789 162.166 109.628 162.554 109.342 162.839C109.056 163.125 108.669 163.286 108.265 163.286L83.8838 163.286C83.4796 163.286 83.092 163.125 82.8063 162.839C82.5205 162.554 82.3599 162.166 82.3599 161.762L82.3599 137.381C82.3599 136.977 82.5205 136.589 82.8063 136.303C83.092 136.018 83.4796 135.857 83.8838 135.857L108.265 135.857ZM56.4552 108.429L80.8361 108.429C81.2403 108.429 81.6279 108.589 81.9136 108.875C82.1994 109.161 82.3599 109.548 82.3599 109.952L82.3599 134.333C82.3599 134.737 82.1994 135.125 81.9136 135.411C81.6279 135.697 81.2403 135.857 80.8361 135.857L56.4552 135.857C56.051 135.857 55.6634 135.697 55.3777 135.411C55.0919 135.125 54.9314 134.737 54.9314 134.333L54.9314 109.952C54.9314 109.548 55.0919 109.161 55.3777 108.875C55.6635 108.589 56.051 108.429 56.4552 108.429ZM29.0266 135.857L53.4076 135.857C53.8117 135.857 54.1993 136.018 54.4851 136.303C54.7708 136.589 54.9314 136.977 54.9314 137.381L54.9314 161.762C54.9314 162.166 54.7708 162.554 54.4851 162.839C54.1993 163.125 53.8117 163.286 53.4076 163.286L29.0266 163.286C28.6225 163.286 28.2349 163.125 27.9491 162.839C27.6633 162.554 27.5028 162.166 27.5028 161.762L27.5028 137.381C27.5028 136.977 27.6633 136.589 27.9491 136.303C28.2349 136.018 28.6225 135.857 29.0266 135.857ZM29.0266 190.714L53.4076 190.714C53.8117 190.714 54.1993 190.875 54.4851 191.161C54.7708 191.446 54.9314 191.834 54.9314 192.238L54.9314 216.619C54.9314 217.023 54.7708 217.411 54.4851 217.697C54.1993 217.982 53.8117 218.143 53.4076 218.143L29.0266 218.143C28.6225 218.143 28.2349 217.982 27.9491 217.697C27.6633 217.411 27.5028 217.023 27.5028 216.619L27.5028 192.238C27.5028 191.834 27.6633 191.446 27.9491 191.161C28.2349 190.875 28.6225 190.714 29.0266 190.714Z" fill="#FEE0B3"/>
<path d="M70.1356 69.4287L80.4308 69.4287C80.7861 69.4287 81.0742 69.1409 81.0742 68.7859L81.0742 58.5002C81.0742 58.1451 80.7861 57.8573 80.4308 57.8573L70.1356 57.8573C69.7803 57.8573 69.4922 58.1451 69.4922 58.5002L69.4922 68.7859C69.4922 69.1409 69.7803 69.4287 70.1356 69.4287Z" fill="#FEE0B3"/>
<path d="M58.5536 81L68.8487 81C69.2041 81 69.4922 80.7122 69.4922 80.3571L69.4922 70.0714C69.4922 69.7164 69.2041 69.4286 68.8487 69.4286L58.5536 69.4286C58.1982 69.4286 57.9102 69.7164 57.9102 70.0714L57.9102 80.3571C57.9102 80.7122 58.1982 81 58.5536 81Z" fill="#FEE0B3"/>
<path d="M35.3895 81L45.6847 81C46.04 81 46.3281 80.7122 46.3281 80.3571L46.3281 70.0714C46.3281 69.7164 46.04 69.4286 45.6847 69.4286L35.3895 69.4286C35.0342 69.4286 34.7461 69.7164 34.7461 70.0714L34.7461 80.3571C34.7461 80.7122 35.0342 81 35.3895 81Z" fill="#FEE0B3"/>
<path d="M12.225 81L22.5201 81C22.8755 81 23.1636 80.7122 23.1636 80.3571L23.1636 70.0714C23.1636 69.7164 22.8755 69.4286 22.5201 69.4286L12.225 69.4286C11.8696 69.4286 11.5816 69.7164 11.5816 70.0714L11.5816 80.3571C11.5816 80.7122 11.8696 81 12.225 81Z" fill="#FEE0B3"/>
<path d="M58.5536 57.8574L68.8487 57.8574C69.2041 57.8574 69.4922 57.5696 69.4922 57.2146L69.4922 46.9289C69.4922 46.5738 69.2041 46.286 68.8487 46.286L58.5536 46.286C58.1982 46.286 57.9102 46.5738 57.9102 46.9289L57.9102 57.2146C57.9102 57.5696 58.1982 57.8574 58.5536 57.8574Z" fill="#FEE0B3"/>
<path d="M35.3895 57.8574L45.6847 57.8574C46.04 57.8574 46.3281 57.5696 46.3281 57.2146L46.3281 46.9289C46.3281 46.5738 46.04 46.286 45.6847 46.286L35.3895 46.286C35.0342 46.286 34.7461 46.5738 34.7461 46.9289L34.7461 57.2146C34.7461 57.5696 35.0342 57.8574 35.3895 57.8574Z" fill="#FEE0B3"/>
<path d="M12.225 57.8574L22.5201 57.8574C22.8755 57.8574 23.1636 57.5696 23.1636 57.2146L23.1636 46.9289C23.1636 46.5738 22.8755 46.286 22.5201 46.286L12.225 46.286C11.8696 46.286 11.5816 46.5738 11.5816 46.9289L11.5816 57.2146C11.5816 57.5696 11.8696 57.8574 12.225 57.8574Z" fill="#FEE0B3"/>
<path d="M58.5536 34.7139L68.8487 34.7139C69.2041 34.7139 69.4922 34.4261 69.4922 34.071L69.4922 23.7853C69.4922 23.4303 69.2041 23.1425 68.8487 23.1425L58.5536 23.1425C58.1982 23.1425 57.9102 23.4303 57.9102 23.7853L57.9102 34.071C57.9102 34.426 58.1982 34.7139 58.5536 34.7139Z" fill="#FEE0B3"/>
<path d="M35.3895 34.7139L45.6847 34.7139C46.04 34.7139 46.3281 34.4261 46.3281 34.071L46.3281 23.7853C46.3281 23.4303 46.04 23.1425 45.6847 23.1425L35.3895 23.1425C35.0342 23.1425 34.7461 23.4303 34.7461 23.7853L34.7461 34.071C34.7461 34.426 35.0342 34.7139 35.3895 34.7139Z" fill="#FEE0B3"/>
<path d="M12.225 34.7139L22.5201 34.7139C22.8755 34.7139 23.1636 34.4261 23.1636 34.071L23.1636 23.7853C23.1636 23.4303 22.8755 23.1425 22.5201 23.1425L12.225 23.1425C11.8696 23.1425 11.5816 23.4303 11.5816 23.7853L11.5816 34.071C11.5816 34.426 11.8696 34.7139 12.225 34.7139Z" fill="#FEE0B3"/>
<path d="M46.9716 69.4287L57.2667 69.4287C57.6221 69.4287 57.9102 69.1409 57.9102 68.7859L57.9102 58.5002C57.9102 58.1451 57.6221 57.8573 57.2667 57.8573L46.9716 57.8573C46.6162 57.8573 46.3281 58.1451 46.3281 58.5002L46.3281 68.7859C46.3281 69.1409 46.6162 69.4287 46.9716 69.4287Z" fill="#FEE0B3"/>
<path d="M23.8075 69.4287L34.1026 69.4287C34.458 69.4287 34.7461 69.1409 34.7461 68.7859L34.7461 58.5002C34.7461 58.1451 34.458 57.8573 34.1026 57.8573L23.8075 57.8573C23.4522 57.8573 23.1641 58.1451 23.1641 58.5002L23.1641 68.7859C23.1641 69.1409 23.4522 69.4287 23.8075 69.4287Z" fill="#FEE0B3"/>
<path d="M0.643942 69.4287L10.9391 69.4287C11.2944 69.4287 11.5825 69.1409 11.5825 68.7859L11.5825 58.5002C11.5825 58.1451 11.2944 57.8573 10.9391 57.8573L0.643943 57.8573C0.288578 57.8573 0.000496897 58.1451 0.000496866 58.5002L0.000495967 68.7859C0.000495936 69.1409 0.288577 69.4287 0.643942 69.4287Z" fill="#FEE0B3"/>
<path d="M70.1356 46.2861L80.4308 46.2861C80.7861 46.2861 81.0742 45.9983 81.0742 45.6433L81.0742 35.3576C81.0742 35.0025 80.7861 34.7147 80.4308 34.7147L70.1356 34.7147C69.7803 34.7147 69.4922 35.0025 69.4922 35.3576L69.4922 45.6433C69.4922 45.9983 69.7803 46.2861 70.1356 46.2861Z" fill="#FEE0B3"/>
<path d="M46.9716 46.2861L57.2667 46.2861C57.6221 46.2861 57.9102 45.9983 57.9102 45.6433L57.9102 35.3576C57.9102 35.0025 57.6221 34.7147 57.2667 34.7147L46.9716 34.7147C46.6162 34.7147 46.3281 35.0025 46.3281 35.3576L46.3281 45.6433C46.3281 45.9983 46.6162 46.2861 46.9716 46.2861Z" fill="#FEE0B3"/>
<path d="M23.8075 46.2861L34.1026 46.2861C34.458 46.2861 34.7461 45.9983 34.7461 45.6433L34.7461 35.3576C34.7461 35.0025 34.458 34.7147 34.1026 34.7147L23.8075 34.7147C23.4522 34.7147 23.1641 35.0025 23.1641 35.3576L23.1641 45.6433C23.1641 45.9983 23.4522 46.2861 23.8075 46.2861Z" fill="#FEE0B3"/>
<path d="M0.643942 46.2861L10.9391 46.2861C11.2944 46.2861 11.5825 45.9983 11.5825 45.6433L11.5825 35.3576C11.5825 35.0025 11.2944 34.7147 10.9391 34.7147L0.643943 34.7147C0.288578 34.7147 0.000496897 35.0025 0.000496866 35.3576L0.000495967 45.6433C0.000495936 45.9983 0.288577 46.2861 0.643942 46.2861Z" fill="#FEE0B3"/>
<path d="M70.1356 23.1426L80.4308 23.1426C80.7861 23.1426 81.0742 22.8548 81.0742 22.4997L81.0742 12.214C81.0742 11.859 80.7861 11.5712 80.4308 11.5712L70.1356 11.5712C69.7803 11.5712 69.4922 11.859 69.4922 12.214L69.4922 22.4997C69.4922 22.8548 69.7803 23.1426 70.1356 23.1426Z" fill="#FEE0B3"/>
<path d="M46.9716 23.1426L57.2667 23.1426C57.6221 23.1426 57.9102 22.8548 57.9102 22.4997L57.9102 12.214C57.9102 11.859 57.6221 11.5712 57.2667 11.5712L46.9716 11.5712C46.6162 11.5712 46.3281 11.859 46.3281 12.214L46.3281 22.4997C46.3281 22.8548 46.6162 23.1426 46.9716 23.1426Z" fill="#FEE0B3"/>
<path d="M23.8075 23.1426L34.1026 23.1426C34.458 23.1426 34.7461 22.8548 34.7461 22.4997L34.7461 12.214C34.7461 11.859 34.458 11.5712 34.1026 11.5712L23.8075 11.5712C23.4522 11.5712 23.1641 11.859 23.1641 12.214L23.1641 22.4997C23.1641 22.8548 23.4522 23.1426 23.8075 23.1426Z" fill="#FEE0B3"/>
<path d="M0.643942 23.1426L10.9391 23.1426C11.2944 23.1426 11.5825 22.8548 11.5825 22.4997L11.5825 12.214C11.5825 11.859 11.2944 11.5712 10.9391 11.5712L0.643943 11.5712C0.288578 11.5712 0.000496897 11.859 0.000496866 12.214L0.000495967 22.4997C0.000495936 22.8548 0.288577 23.1426 0.643942 23.1426Z" fill="#FEE0B3"/>
<path d="M58.5536 11.5713L68.8487 11.5713C69.2041 11.5713 69.4922 11.2835 69.4922 10.9284L69.4922 0.642737C69.4922 0.287698 69.2041 -0.000119234 68.8487 -0.000119266L58.5536 -0.000120166C58.1982 -0.000120197 57.9102 0.287697 57.9102 0.642736L57.9102 10.9284C57.9102 11.2835 58.1982 11.5713 58.5536 11.5713Z" fill="#FEE0B3"/>
<path d="M35.3895 11.5713L45.6847 11.5713C46.04 11.5713 46.3281 11.2835 46.3281 10.9284L46.3281 0.642737C46.3281 0.287698 46.04 -0.000119234 45.6847 -0.000119266L35.3895 -0.000120166C35.0342 -0.000120197 34.7461 0.287697 34.7461 0.642736L34.7461 10.9284C34.7461 11.2835 35.0342 11.5713 35.3895 11.5713Z" fill="#FEE0B3"/>
<path d="M12.225 11.5713L22.5201 11.5713C22.8755 11.5713 23.1636 11.2835 23.1636 10.9284L23.1636 0.642737C23.1636 0.287698 22.8755 -0.000119234 22.5201 -0.000119266L12.225 -0.000120166C11.8696 -0.000120197 11.5816 0.287697 11.5816 0.642736L11.5816 10.9284C11.5816 11.2835 11.8696 11.5713 12.225 11.5713Z" fill="#FEE0B3"/>
</svg>