<svg width="193" height="273" viewBox="0 0 193 273" fill="none" xmlns="http://www.w3.org/2000/svg">
<path d="M166.095 27.4286H190.476C190.88 27.4286 191.268 27.268 191.554 26.9823C191.839 26.6965 192 26.3089 192 25.9048V1.52381C192 1.11967 191.839 0.732082 191.554 0.446312C191.268 0.160543 190.88 0 190.476 0H166.095C165.691 0 165.304 0.160543 165.018 0.446312C164.732 0.732082 164.571 1.11967 164.571 1.52381V25.9048C164.571 26.3089 164.411 26.6965 164.125 26.9823C163.839 27.268 163.452 27.4286 163.048 27.4286H138.667C138.263 27.4286 137.875 27.268 137.589 26.9823C137.303 26.6965 137.143 26.3089 137.143 25.9048V1.52381C137.143 1.11967 136.982 0.732082 136.697 0.446312C136.411 0.160543 136.023 0 135.619 0H111.238C110.834 0 110.446 0.160543 110.161 0.446312C109.875 0.732082 109.714 1.11967 109.714 1.52381V25.9048C109.714 26.3089 109.554 26.6965 109.268 26.9823C108.982 27.268 108.595 27.4286 108.19 27.4286H83.8095C83.4054 27.4286 83.0178 27.268 82.732 26.9823C82.4463 26.6965 82.2857 26.3089 82.2857 25.9048V1.52381C82.2857 1.11967 82.1252 0.732082 81.8394 0.446312C81.5536 0.160543 81.166 0 80.7619 0H56.381C55.9768 0 55.5892 0.160543 55.3035 0.446312C55.0177 0.732082 54.8571 1.11967 54.8571 1.52381V25.9048C54.8571 26.3089 54.6966 26.6965 54.4108 26.9823C54.1251 27.268 53.7375 27.4286 53.3333 27.4286H28.9524C28.5482 27.4286 28.1607 27.268 27.8749 26.9823C27.5891 26.6965 27.4286 26.3089 27.4286 25.9048V1.52381C27.4286 1.11967 27.268 0.732082 26.9823 0.446312C26.6965 0.160543 26.3089 0 25.9048 0H1.52381C1.11967 0 0.732082 0.160543 0.446312 0.446312C0.160543 0.732082 0 1.11967 0 1.52381V25.9048C0 26.3089 0.160543 26.6965 0.446312 26.9823C0.732082 27.268 1.11967 27.4286 1.52381 27.4286H25.9048C26.3089 27.4286 26.6965 27.5891 26.9823 27.8749C27.268 28.1607 27.4286 28.5482 27.4286 28.9524V53.3333C27.4286 53.7375 27.268 54.1251 26.9823 54.4108C26.6965 54.6966 26.3089 54.8571 25.9048 54.8571H1.52381C1.11967 54.8571 0.732082 55.0177 0.446312 55.3035C0.160543 55.5892 0 55.9768 0 56.381V80.7619C0 81.166 0.160543 81.5536 0.446312 81.8394C0.732082 82.1252 1.11967 82.2857 1.52381 82.2857H25.9048C26.3089 82.2857 26.6965 82.4463 26.9823 82.732C27.268 83.0178 27.4286 83.4054 27.4286 83.8095V108.19C27.4286 108.595 27.268 108.982 26.9823 109.268C26.6965 109.554 26.3089 109.714 25.9048 109.714H1.52381C1.11967 109.714 0.732082 109.875 0.446312 110.161C0.160543 110.446 0 110.834 0 111.238V135.619C0 136.023 0.160543 136.411 0.446312 136.697C0.732082 136.982 1.11967 137.143 1.52381 137.143H25.9048C26.3089 137.143 26.6965 137.303 26.9823 137.589C27.268 137.875 27.4286 138.263 27.4286 138.667V163.048C27.4286 163.452 27.268 163.839 26.9823 164.125C26.6965 164.411 26.3089 164.571 25.9048 164.571H1.52381C1.11967 164.571 0.732082 164.732 0.446312 165.018C0.160543 165.304 0 165.691 0 166.095V190.476C0 190.88 0.160543 191.268 0.446312 191.554C0.732082 191.839 1.11967 192 1.52381 192H25.9048C26.3089 192 26.6965 191.839 26.9823 191.554C27.268 191.268 27.4286 190.88 27.4286 190.476V166.095C27.4286 165.691 27.5891 165.304 27.8749 165.018C28.1607 164.732 28.5482 164.571 28.9524 164.571H53.3333C53.7375 164.571 54.1251 164.732 54.4108 165.018C54.6966 165.304 54.8571 165.691 54.8571 166.095V190.476C54.8571 190.88 55.0177 191.268 55.3035 191.554C55.5892 191.839 55.9768 192 56.381 192H80.7619C81.166 192 81.5536 191.839 81.8394 191.554C82.1252 191.268 82.2857 190.88 82.2857 190.476V166.095C82.2857 165.691 82.4463 165.304 82.732 165.018C83.0178 164.732 83.4054 164.571 83.8095 164.571H108.19C108.595 164.571 108.982 164.732 109.268 165.018C109.554 165.304 109.714 165.691 109.714 166.095V190.476C109.714 190.88 109.875 191.268 110.161 191.554C110.446 191.839 110.834 192 111.238 192H135.619C136.023 192 136.411 191.839 136.697 191.554C136.982 191.268 137.143 190.88 137.143 190.476V166.095C137.143 165.691 137.303 165.304 137.589 165.018C137.875 164.732 138.263 164.571 138.667 164.571H163.048C163.452 164.571 163.839 164.732 164.125 165.018C164.411 165.304 164.571 165.691 164.571 166.095V190.476C164.571 190.88 164.732 191.268 165.018 191.554C165.304 191.839 165.691 192 166.095 192H190.476C190.88 192 191.268 191.839 191.554 191.554C191.839 191.268 192 190.88 192 190.476V166.095C192 165.691 191.839 165.304 191.554 165.018C191.268 164.732 190.88 164.571 190.476 164.571H166.095C165.691 164.571 165.304 164.411 165.018 164.125C164.732 163.839 164.571 163.452 164.571 163.048V138.667C164.571 138.263 164.732 137.875 165.018 137.589C165.304 137.303 165.691 137.143 166.095 137.143H190.476C190.88 137.143 191.268 136.982 191.554 136.697C191.839 136.411 192 136.023 192 135.619V111.238C192 110.834 191.839 110.446 191.554 110.161C191.268 109.875 190.88 109.714 190.476 109.714H166.095C165.691 109.714 165.304 109.554 165.018 109.268C164.732 108.982 164.571 108.595 164.571 108.19V83.8095C164.571 83.4054 164.732 83.0178 165.018 82.732C165.304 82.4463 165.691 82.2857 166.095 82.2857H190.476C190.88 82.2857 191.268 82.1252 191.554 81.8394C191.839 81.5536 192 81.166 192 80.7619V56.381C192 55.9768 191.839 55.5892 191.554 55.3035C191.268 55.0177 190.88 54.8571 190.476 54.8571H166.095C165.691 54.8571 165.304 54.6966 165.018 54.4108C164.732 54.1251 164.571 53.7375 164.571 53.3333V28.9524C164.571 28.5482 164.732 28.1607 165.018 27.8749C165.304 27.5891 165.691 27.4286 166.095 27.4286ZM111.238 27.4286H135.619C136.023 27.4286 136.411 27.5891 136.697 27.8749C136.982 28.1607 137.143 28.5482 137.143 28.9524V53.3333C137.143 53.7375 136.982 54.1251 136.697 54.4108C136.411 54.6966 136.023 54.8571 135.619 54.8571H111.238C110.834 54.8571 110.446 54.6966 110.161 54.4108C109.875 54.1251 109.714 53.7375 109.714 53.3333V28.9524C109.714 28.5482 109.875 28.1607 110.161 27.8749C110.446 27.5891 110.834 27.4286 111.238 27.4286ZM137.143 108.19C137.143 108.595 136.982 108.982 136.697 109.268C136.411 109.554 136.023 109.714 135.619 109.714H111.238C110.834 109.714 110.446 109.554 110.161 109.268C109.875 108.982 109.714 108.595 109.714 108.19V83.8095C109.714 83.4054 109.875 83.0178 110.161 82.732C110.446 82.4463 110.834 82.2857 111.238 82.2857H135.619C136.023 82.2857 136.411 82.4463 136.697 82.732C136.982 83.0178 137.143 83.4054 137.143 83.8095V108.19ZM108.19 54.8571C108.595 54.8571 108.982 55.0177 109.268 55.3035C109.554 55.5892 109.714 55.9768 109.714 56.381V80.7619C109.714 81.166 109.554 81.5536 109.268 81.8394C108.982 82.1252 108.595 82.2857 108.19 82.2857H83.8095C83.4054 82.2857 83.0178 82.1252 82.732 81.8394C82.4463 81.5536 82.2857 81.166 82.2857 80.7619V56.381C82.2857 55.9768 82.4463 55.5892 82.732 55.3035C83.0178 55.0177 83.4054 54.8571 83.8095 54.8571H108.19ZM80.7619 109.714H56.381C55.9768 109.714 55.5892 109.554 55.3035 109.268C55.0177 108.982 54.8571 108.595 54.8571 108.19V83.8095C54.8571 83.4054 55.0177 83.0178 55.3035 82.732C55.5892 82.4463 55.9768 82.2857 56.381 82.2857H80.7619C81.166 82.2857 81.5536 82.4463 81.8394 82.732C82.1252 83.0178 82.2857 83.4054 82.2857 83.8095V108.19C82.2857 108.595 82.1252 108.982 81.8394 109.268C81.5536 109.554 81.166 109.714 80.7619 109.714ZM56.381 27.4286H80.7619C81.166 27.4286 81.5536 27.5891 81.8394 27.8749C82.1252 28.1607 82.2857 28.5482 82.2857 28.9524V53.3333C82.2857 53.7375 82.1252 54.1251 81.8394 54.4108C81.5536 54.6966 81.166 54.8571 80.7619 54.8571H56.381C55.9768 54.8571 55.5892 54.6966 55.3035 54.4108C55.0177 54.1251 54.8571 53.7375 54.8571 53.3333V28.9524C54.8571 28.5482 55.0177 28.1607 55.3035 27.8749C55.5892 27.5891 55.9768 27.4286 56.381 27.4286ZM28.9524 54.8571H53.3333C53.7375 54.8571 54.1251 55.0177 54.4108 55.3035C54.6966 55.5892 54.8571 55.9768 54.8571 56.381V80.7619C54.8571 81.166 54.6966 81.5536 54.4108 81.8394C54.1251 82.1252 53.7375 82.2857 53.3333 82.2857H28.9524C28.5482 82.2857 28.1607 82.1252 27.8749 81.8394C27.5891 81.5536 27.4286 81.166 27.4286 80.7619V56.381C27.4286 55.9768 27.5891 55.5892 27.8749 55.3035C28.1607 55.0177 28.5482 54.8571 28.9524 54.8571ZM28.9524 137.143C28.5482 137.143 28.1607 136.982 27.8749 136.697C27.5891 136.411 27.4286 136.023 27.4286 135.619V111.238C27.4286 110.834 27.5891 110.446 27.8749 110.161C28.1607 109.875 28.5482 109.714 28.9524 109.714H53.3333C53.7375 109.714 54.1251 109.875 54.4108 110.161C54.6966 110.446 54.8571 110.834 54.8571 111.238V135.619C54.8571 136.023 54.6966 136.411 54.4108 136.697C54.1251 136.982 53.7375 137.143 53.3333 137.143H28.9524ZM80.7619 164.571H56.381C55.9768 164.571 55.5892 164.411 55.3035 164.125C55.0177 163.839 54.8571 163.452 54.8571 163.048V138.667C54.8571 138.263 55.0177 137.875 55.3035 137.589C55.5892 137.303 55.9768 137.143 56.381 137.143H80.7619C81.166 137.143 81.5536 137.303 81.8394 137.589C82.1252 137.875 82.2857 138.263 82.2857 138.667V163.048C82.2857 163.452 82.1252 163.839 81.8394 164.125C81.5536 164.411 81.166 164.571 80.7619 164.571ZM83.8095 137.143C83.4054 137.143 83.0178 136.982 82.732 136.697C82.4463 136.411 82.2857 136.023 82.2857 135.619V111.238C82.2857 110.834 82.4463 110.446 82.732 110.161C83.0178 109.875 83.4054 109.714 83.8095 109.714H108.19C108.595 109.714 108.982 109.875 109.268 110.161C109.554 110.446 109.714 110.834 109.714 111.238V135.619C109.714 136.023 109.554 136.411 109.268 136.697C108.982 136.982 108.595 137.143 108.19 137.143H83.8095ZM135.619 164.571H111.238C110.834 164.571 110.446 164.411 110.161 164.125C109.875 163.839 109.714 163.452 109.714 163.048V138.667C109.714 138.263 109.875 137.875 110.161 137.589C110.446 137.303 110.834 137.143 111.238 137.143H135.619C136.023 137.143 136.411 137.303 136.697 137.589C136.982 137.875 137.143 138.263 137.143 138.667V163.048C137.143 163.452 136.982 163.839 136.697 164.125C136.411 164.411 136.023 164.571 135.619 164.571ZM163.048 137.143H138.667C138.263 137.143 137.875 136.982 137.589 136.697C137.303 136.411 137.143 136.023 137.143 135.619V111.238C137.143 110.834 137.303 110.446 137.589 110.161C137.875 109.875 138.263 109.714 138.667 109.714H163.048C163.452 109.714 163.839 109.875 164.125 110.161C164.411 110.446 164.571 110.834 164.571 111.238V135.619C164.571 136.023 164.411 136.411 164.125 136.697C163.839 136.982 163.452 137.143 163.048 137.143ZM163.048 82.2857H138.667C138.263 82.2857 137.875 82.1252 137.589 81.8394C137.303 81.5536 137.143 81.166 137.143 80.7619V56.381C137.143 55.9768 137.303 55.5892 137.589 55.3035C137.875 55.0177 138.263 54.8571 138.667 54.8571H163.048C163.452 54.8571 163.839 55.0177 164.125 55.3035C164.411 55.5892 164.571 55.9768 164.571 56.381V80.7619C164.571 81.166 164.411 81.5536 164.125 81.8394C163.839 82.1252 163.452 82.2857 163.048 82.2857Z" fill="#FEE0B3"/>
<path d="M121.939 203.571H111.643C111.288 203.571 111 203.859 111 204.214V214.5C111 214.855 111.288 215.143 111.643 215.143H121.939C122.294 215.143 122.582 214.855 122.582 214.5V204.214C122.582 203.859 122.294 203.571 121.939 203.571Z" fill="#FEE0B3"/>
<path d="M133.521 192H123.226C122.871 192 122.583 192.288 122.583 192.643V202.929C122.583 203.284 122.871 203.571 123.226 203.571H133.521C133.876 203.571 134.165 203.284 134.165 202.929V192.643C134.165 192.288 133.876 192 133.521 192Z" fill="#FEE0B3"/>
<path d="M156.685 192H146.39C146.034 192 145.746 192.288 145.746 192.643V202.929C145.746 203.284 146.034 203.571 146.39 203.571H156.685C157.04 203.571 157.328 203.284 157.328 202.929V192.643C157.328 192.288 157.04 192 156.685 192Z" fill="#FEE0B3"/>
<path d="M179.849 192H169.554C169.199 192 168.911 192.288 168.911 192.643V202.929C168.911 203.284 169.199 203.571 169.554 203.571H179.849C180.205 203.571 180.493 203.284 180.493 202.929V192.643C180.493 192.288 180.205 192 179.849 192Z" fill="#FEE0B3"/>
<path d="M133.521 215.143H123.226C122.871 215.143 122.583 215.43 122.583 215.785V226.071C122.583 226.426 122.871 226.714 123.226 226.714H133.521C133.876 226.714 134.165 226.426 134.165 226.071V215.785C134.165 215.43 133.876 215.143 133.521 215.143Z" fill="#FEE0B3"/>
<path d="M156.685 215.143H146.39C146.034 215.143 145.746 215.43 145.746 215.785V226.071C145.746 226.426 146.034 226.714 146.39 226.714H156.685C157.04 226.714 157.328 226.426 157.328 226.071V215.785C157.328 215.43 157.04 215.143 156.685 215.143Z" fill="#FEE0B3"/>
<path d="M179.849 215.143H169.554C169.199 215.143 168.911 215.43 168.911 215.785V226.071C168.911 226.426 169.199 226.714 169.554 226.714H179.849C180.205 226.714 180.493 226.426 180.493 226.071V215.785C180.493 215.43 180.205 215.143 179.849 215.143Z" fill="#FEE0B3"/>
<path d="M133.521 238.286H123.226C122.871 238.286 122.583 238.574 122.583 238.929V249.215C122.583 249.57 122.871 249.858 123.226 249.858H133.521C133.876 249.858 134.165 249.57 134.165 249.215V238.929C134.165 238.574 133.876 238.286 133.521 238.286Z" fill="#FEE0B3"/>
<path d="M156.685 238.286H146.39C146.034 238.286 145.746 238.574 145.746 238.929V249.215C145.746 249.57 146.034 249.858 146.39 249.858H156.685C157.04 249.858 157.328 249.57 157.328 249.215V238.929C157.328 238.574 157.04 238.286 156.685 238.286Z" fill="#FEE0B3"/>
<path d="M179.849 238.286H169.554C169.199 238.286 168.911 238.574 168.911 238.929V249.215C168.911 249.57 169.199 249.858 169.554 249.858H179.849C180.205 249.858 180.493 249.57 180.493 249.215V238.929C180.493 238.574 180.205 238.286 179.849 238.286Z" fill="#FEE0B3"/>
<path d="M145.102 203.571H134.807C134.452 203.571 134.164 203.859 134.164 204.214V214.5C134.164 214.855 134.452 215.143 134.807 215.143H145.102C145.458 215.143 145.746 214.855 145.746 214.5V204.214C145.746 203.859 145.458 203.571 145.102 203.571Z" fill="#FEE0B3"/>
<path d="M168.267 203.571H157.972C157.616 203.571 157.328 203.859 157.328 204.214V214.5C157.328 214.855 157.616 215.143 157.972 215.143H168.267C168.622 215.143 168.91 214.855 168.91 214.5V204.214C168.91 203.859 168.622 203.571 168.267 203.571Z" fill="#FEE0B3"/>
<path d="M191.43 203.571H181.135C180.78 203.571 180.492 203.859 180.492 204.214V214.5C180.492 214.855 180.78 215.143 181.135 215.143H191.43C191.786 215.143 192.074 214.855 192.074 214.5V204.214C192.074 203.859 191.786 203.571 191.43 203.571Z" fill="#FEE0B3"/>
<path d="M121.939 226.714H111.643C111.288 226.714 111 227.002 111 227.357V237.642C111 237.997 111.288 238.285 111.643 238.285H121.939C122.294 238.285 122.582 237.997 122.582 237.642V227.357C122.582 227.002 122.294 226.714 121.939 226.714Z" fill="#FEE0B3"/>
<path d="M145.102 226.714H134.807C134.452 226.714 134.164 227.002 134.164 227.357V237.642C134.164 237.997 134.452 238.285 134.807 238.285H145.102C145.458 238.285 145.746 237.997 145.746 237.642V227.357C145.746 227.002 145.458 226.714 145.102 226.714Z" fill="#FEE0B3"/>
<path d="M168.267 226.714H157.972C157.616 226.714 157.328 227.002 157.328 227.357V237.642C157.328 237.997 157.616 238.285 157.972 238.285H168.267C168.622 238.285 168.91 237.997 168.91 237.642V227.357C168.91 227.002 168.622 226.714 168.267 226.714Z" fill="#FEE0B3"/>
<path d="M191.43 226.714H181.135C180.78 226.714 180.492 227.002 180.492 227.357V237.642C180.492 237.997 180.78 238.285 181.135 238.285H191.43C191.786 238.285 192.074 237.997 192.074 237.642V227.357C192.074 227.002 191.786 226.714 191.43 226.714Z" fill="#FEE0B3"/>
<path d="M121.939 249.857H111.643C111.288 249.857 111 250.145 111 250.5V260.786C111 261.141 111.288 261.429 111.643 261.429H121.939C122.294 261.429 122.582 261.141 122.582 260.786V250.5C122.582 250.145 122.294 249.857 121.939 249.857Z" fill="#FEE0B3"/>
<path d="M145.102 249.857H134.807C134.452 249.857 134.164 250.145 134.164 250.5V260.786C134.164 261.141 134.452 261.429 134.807 261.429H145.102C145.458 261.429 145.746 261.141 145.746 260.786V250.5C145.746 250.145 145.458 249.857 145.102 249.857Z" fill="#FEE0B3"/>
<path d="M168.267 249.857H157.972C157.616 249.857 157.328 250.145 157.328 250.5V260.786C157.328 261.141 157.616 261.429 157.972 261.429H168.267C168.622 261.429 168.91 261.141 168.91 260.786V250.5C168.91 250.145 168.622 249.857 168.267 249.857Z" fill="#FEE0B3"/>
<path d="M191.43 249.857H181.135C180.78 249.857 180.492 250.145 180.492 250.5V260.786C180.492 261.141 180.78 261.429 181.135 261.429H191.43C191.786 261.429 192.074 261.141 192.074 260.786V250.5C192.074 250.145 191.786 249.857 191.43 249.857Z" fill="#FEE0B3"/>
<path d="M133.521 261.429H123.226C122.871 261.429 122.583 261.717 122.583 262.072V272.357C122.583 272.712 122.871 273 123.226 273H133.521C133.876 273 134.165 272.712 134.165 272.357V262.072C134.165 261.717 133.876 261.429 133.521 261.429Z" fill="#FEE0B3"/>
<path d="M156.685 261.429H146.39C146.034 261.429 145.746 261.717 145.746 262.072V272.357C145.746 272.712 146.034 273 146.39 273H156.685C157.04 273 157.328 272.712 157.328 272.357V262.072C157.328 261.717 157.04 261.429 156.685 261.429Z" fill="#FEE0B3"/>
<path d="M179.849 261.429H169.554C169.199 261.429 168.911 261.717 168.911 262.072V272.357C168.911 272.712 169.199 273 169.554 273H179.849C180.205 273 180.493 272.712 180.493 272.357V262.072C180.493 261.717 180.205 261.429 179.849 261.429Z" fill="#FEE0B3"/>
</svg>