<svg id="LOGO" xmlns="http://www.w3.org/2000/svg" viewBox="0 0 1263.59 355.31"><path d="M683,773.13l-57.48,335.3a10,10,0,0,1-9.85,8.31h-180a10,10,0,0,1-9.86-8.31l-57.48-335.3a10,10,0,0,1,9.86-11.69h54.18a10,10,0,0,1,9.85,8.28l41.42,237c3.94,22,20.86,36.66,42.3,36.66,20.86,0,37.78-14.67,42.29-36.66l40.87-237a10,10,0,0,1,9.86-8.3h54.16A10,10,0,0,1,683,773.13Z" transform="translate(-368.21 -761.44)"/><path d="M964,1116.74H808.28c-59.53,0-108.1-48.25-107.84-107.78.28-64,43.08-106.53,107.16-106.53h67.25A34.16,34.16,0,0,0,909.11,868c-.24-20-13.72-33.29-33.83-33.29H755.56a10,10,0,0,1-10-10V771.44a10,10,0,0,1,10-10H964a10,10,0,0,1,10,10v335.3A10,10,0,0,1,964,1116.74Zm-54.85-107.15c0-20.31-13.54-33.84-33.84-33.84H807.6c-20.3,0-33.84,13.53-33.84,33.84s13.54,33.84,33.84,33.84h67.68C895.58,1043.43,909.12,1029.89,909.12,1009.59Z" transform="translate(-368.21 -761.44)"/><path d="M1313.82,899.61v207.13a10,10,0,0,1-10,10h-53.31a10,10,0,0,1-10-10V900.08c0-36-29.09-65.41-65.07-65.33-38.8.1-64.65,26-64.65,64.86v207.13a10,10,0,0,1-10,10h-53.32a10,10,0,0,1-10-10V771.44a10,10,0,0,1,10-10h128.18C1258.55,761.44,1313.82,816.71,1313.82,899.61Z" transform="translate(-368.21 -761.44)"/><path d="M1621.79,1116.74H1466.1c-59.53,0-108.1-48.25-107.84-107.78.28-64,43.08-106.53,107.16-106.53h67.25A34.16,34.16,0,0,0,1566.93,868c-.24-20-13.72-33.29-33.83-33.29H1413.38a10,10,0,0,1-10-10V771.44a10,10,0,0,1,10-10h208.41a10,10,0,0,1,10,10v335.3A10,10,0,0,1,1621.79,1116.74Zm-54.85-107.15c0-20.31-13.54-33.84-33.84-33.84h-67.68c-20.3,0-33.84,13.53-33.84,33.84s13.54,33.84,33.84,33.84h67.68C1553.4,1043.43,1566.94,1029.89,1566.94,1009.59Z" transform="translate(-368.21 -761.44)"/></svg>