<svg width="42" height="42" viewBox="0 0 42 42" fill="none" xmlns="http://www.w3.org/2000/svg">
<circle cx="21" cy="21" r="21" fill="#DBFF00"/>
<path d="M21 16.3091C16.0292 16.3091 12 15.1194 12 13.6544C12 12.1894 16.0292 11 21 11C25.9708 11 30 12.1897 30 13.6544C30 15.119 25.9708 16.3091 21 16.3091ZM12 19.4335C12 19.9924 15.0634 21.3081 21 21.3081C26.9366 21.3081 30 19.9934 30 19.4335V16.3941C29.9998 16.3336 29.9821 16.2743 29.9486 16.2219C29.9151 16.1695 29.8671 16.1259 29.8092 16.0954C29.7513 16.0649 29.6856 16.0486 29.6185 16.0481C29.5515 16.0476 29.4855 16.0629 29.427 16.0924C27.4411 17.0912 24.2142 17.5581 21 17.5581C17.7858 17.5581 14.5608 17.0912 12.5749 16.0924C12.5163 16.0624 12.4501 16.0468 12.3827 16.0471C12.3154 16.0474 12.2493 16.0637 12.1912 16.0943C12.133 16.1248 12.0847 16.1687 12.0511 16.2213C12.0176 16.274 12 16.3337 12 16.3945V19.4335ZM12 24.4301C12 24.9893 15.0634 26.3047 21 26.3047C26.9366 26.3047 30 24.99 30 24.4301V21.6643C30 21.6063 29.9839 21.5492 29.9531 21.4982C29.9223 21.4473 29.8779 21.4041 29.8238 21.3726C29.7698 21.3412 29.7079 21.3224 29.6437 21.3181C29.5796 21.3138 29.5153 21.3241 29.4567 21.348C27.4453 22.1677 24.158 22.5551 21 22.5551C17.842 22.5551 14.5547 22.1677 12.5433 21.3484C12.4848 21.3245 12.4205 21.3142 12.3564 21.3185C12.2923 21.3228 12.2304 21.3415 12.1763 21.3729C12.1223 21.4043 12.0779 21.4474 12.0471 21.4983C12.0163 21.5492 12.0001 21.6063 12 21.6643V24.4301ZM12 28.4224C12 31.8592 30 31.8592 30 28.4224V26.6609C30.0001 26.6028 29.984 26.5457 29.9532 26.4947C29.9225 26.4437 29.878 26.4005 29.824 26.369C29.7699 26.3375 29.708 26.3187 29.6438 26.3144C29.5796 26.3101 29.5153 26.3204 29.4567 26.3443C27.4453 27.1643 24.158 27.5517 21 27.5517C17.842 27.5517 14.5547 27.1643 12.5433 26.3443C12.4847 26.3204 12.4204 26.3101 12.3563 26.3144C12.2921 26.3187 12.2302 26.3374 12.1762 26.3689C12.1221 26.4004 12.0777 26.4435 12.0469 26.4945C12.0161 26.5454 12 26.6025 12 26.6606V28.4224Z" fill="black"/>
</svg>