<svg width="42" height="42" viewBox="0 0 42 42" fill="none" xmlns="http://www.w3.org/2000/svg">
<circle cx="21" cy="21" r="21" fill="#DBFF00"/>
<path d="M15.6085 34.9414C15.5746 34.9722 15.5304 34.9921 15.4828 34.9981C15.4352 35.0041 15.3867 34.9958 15.3448 34.9745C15.3029 34.9532 15.2698 34.9201 15.2507 34.8801C15.2316 34.8402 15.2274 34.7958 15.2389 34.7535L18.9451 21.1385C18.9654 21.0647 18.9694 20.988 18.9568 20.9129C18.9442 20.8377 18.9153 20.7656 18.8717 20.7006C18.8282 20.6355 18.7708 20.579 18.703 20.5341C18.6352 20.4892 18.5582 20.4568 18.4765 20.4389C18.4246 20.4288 18.3717 20.4237 18.3186 20.4238H12.2195C12.1762 20.4237 12.1338 20.4121 12.0978 20.3903C12.0618 20.3685 12.0336 20.3376 12.017 20.3014C12.0003 20.2653 11.9958 20.2254 12.004 20.187C12.0123 20.1485 12.0329 20.1131 12.0633 20.0852L26.3919 7.05863C26.4258 7.02781 26.47 7.00787 26.5176 7.00189C26.5653 6.99591 26.6137 7.0042 26.6557 7.02551C26.6976 7.04681 26.7306 7.07995 26.7498 7.11985C26.7689 7.15976 26.773 7.20422 26.7615 7.24646L23.0681 20.8623C23.0477 20.9361 23.0437 21.0128 23.0563 21.0879C23.0689 21.1631 23.0978 21.2353 23.1413 21.3003C23.1849 21.3654 23.2422 21.4219 23.3101 21.4668C23.3779 21.5117 23.455 21.544 23.5367 21.5619C23.5866 21.572 23.6377 21.5771 23.6889 21.577H29.7805C29.8238 21.5771 29.8662 21.5887 29.9022 21.6105C29.9382 21.6323 29.9664 21.6632 29.983 21.6994C29.9997 21.7355 30.0042 21.7754 29.996 21.8138C29.9877 21.8523 29.9671 21.8877 29.9367 21.9156L15.6085 34.9414Z" fill="black"/>
</svg>