<svg width="42" height="42" viewBox="0 0 42 42" fill="none" xmlns="http://www.w3.org/2000/svg">
<circle cx="21" cy="21" r="21" fill="#DBFF00"/>
<path d="M20.9998 20.2617C23.6055 20.2617 25.7178 18.1884 25.7178 15.6309C25.7178 13.0733 23.6055 11 20.9998 11C18.3941 11 16.2817 13.0733 16.2817 15.6309C16.2817 18.1884 18.3941 20.2617 20.9998 20.2617Z" fill="black"/>
<path d="M10.4372 30.9996C10.3783 30.9997 10.3199 30.9889 10.2657 30.968C10.2115 30.9471 10.1625 30.9165 10.1217 30.878C10.0808 30.8395 10.0491 30.7939 10.0282 30.744C10.0074 30.694 9.99791 30.6408 10.0004 30.5875C10.2393 25.2741 15.0727 21.0332 21 21.0332C26.9273 21.0332 31.7607 25.2741 31.9996 30.5875C32.0021 30.6408 31.9926 30.694 31.9718 30.744C31.9509 30.7939 31.9192 30.8395 31.8783 30.878C31.8375 30.9165 31.7885 30.9471 31.7343 30.968C31.6801 30.9889 31.6217 30.9997 31.5628 30.9996H10.4372Z" fill="black"/>
</svg>